<svg viewBox="0 0 48 48" fill="none" xmlns="http://www.w3.org/2000/svg">
  <!-- Shield background -->
  <path d="M24 3L6 10.5V23C6 33.5 14.5 42 24 46C33.5 42 42 33.5 42 23V10.5L24 3Z" fill="#801F82"/>
  <path d="M24 3L6 10.5V23C6 33.5 14.5 42 24 46" stroke="rgba(255,255,255,0.25)" stroke-width="0.5"/>
  <!-- Torch handle -->
  <rect x="21.5" y="30" width="5" height="10" rx="2" fill="white" opacity="0.85"/>
  <!-- Torch base -->
  <rect x="19" y="38" width="10" height="2.5" rx="1.25" fill="white" opacity="0.65"/>
  <!-- Torch cup -->
  <path d="M17.5 26.5L19.5 30H28.5L30.5 26.5H17.5Z" fill="white" opacity="0.75"/>
  <!-- Flame outer (lighter purple) -->
  <path d="M24 10C24 10 17 16.5 17 23C17 27 20.1 30 24 30C27.9 30 31 27 31 23C31 16.5 24 10 24 10Z" fill="#C77DC8"/>
  <!-- Flame mid (white-ish) -->
  <path d="M24 15C24 15 20.5 19.5 20.5 23C20.5 25.2 22 27 24 27C26 27 27.5 25.2 27.5 23C27.5 19.5 24 15 24 15Z" fill="rgba(255,255,255,0.88)"/>
  <!-- Flame tip (bright white) -->
  <path d="M24 19C24 19 22.5 21 22.5 23C22.5 24.1 23.1 25 24 25C24.9 25 25.5 24.1 25.5 23C25.5 21 24 19 24 19Z" fill="white"/>
</svg>
